<?xml version="1.0" encoding="utf-8"?>
<!-- Generator: Adobe Illustrator 16.0.0, SVG Export Plug-In . SVG Version: 6.00 Build 0)  -->
<!DOCTYPE svg PUBLIC "-//W3C//DTD SVG 1.1//EN" "http://www.w3.org/Graphics/SVG/1.1/DTD/svg11.dtd">
<svg version="1.1" id="Capa_1" xmlns="http://www.w3.org/2000/svg" xmlns:xlink="http://www.w3.org/1999/xlink" x="0px" y="0px"
	 width="36px" height="36px" viewBox="0 0 36 36" enable-background="new 0 0 36 36" xml:space="preserve">
<path fill-rule="evenodd" clip-rule="evenodd" fill="#EABA2D" d="M36.17,4.523v26.956c0,2.498-2.035,4.524-4.544,4.524H4.545
	C2.035,36.004,0,33.978,0,31.479V4.523C0,2.025,2.035,0,4.545,0h27.081C34.135,0,36.17,2.025,36.17,4.523z"/>
<linearGradient id="SVGID_1_" gradientUnits="userSpaceOnUse" x1="18.0845" y1="22.8994" x2="18.0845" y2="39.3393">
	<stop  offset="0" style="stop-color:#FFFFFF"/>
	<stop  offset="1" style="stop-color:#000000"/>
</linearGradient>
<path opacity="0.35" fill="url(#SVGID_1_)" d="M36.17,16.92v14.559c0,2.498-2.035,4.524-4.544,4.524H4.545
	C2.035,36.004,0,33.978,0,31.479V15.473c1.558,1.557,3.309,2.922,5.215,4.055c1.288,0.768,2.647,1.427,4.065,1.972
	c2.02,0.775,4.159,1.312,6.383,1.577c0.125,0.012,0.252,0.027,0.378,0.039c0.041,0.007,0.082,0.011,0.122,0.016
	c0.881,0.088,1.775,0.13,2.68,0.13c2.46,0,4.841-0.33,7.102-0.953c0.567-0.155,1.129-0.33,1.682-0.524
	c0.672-0.233,1.333-0.494,1.979-0.778c0.616-0.271,1.222-0.568,1.813-0.884c1.641-0.878,3.179-1.924,4.59-3.112
	C36.061,16.974,36.114,16.943,36.17,16.92z"/>
<polygon fill="#654320" points="15.663,34.324 5.215,29.424 5.215,12.984 15.663,17.887 "/>
<polygon fill="#8F5F24" points="31.418,29.792 16.041,34.318 16.041,17.881 31.418,13.355 "/>
<polygon fill="#8F5F24" points="31.418,13.098 16.041,17.624 5.047,12.501 20.802,9.108 "/>
<polygon fill="#FFFFFF" points="15.663,28.914 9.28,25.714 9.28,20.127 15.663,22.952 "/>
<polygon fill="#FFFFFF" points="27.626,25.645 16.041,29.038 16.041,23.161 27.626,20.145 "/>
<polygon fill="#FFFFFF" points="25.944,17.991 25.944,28.852 30.489,21.732 "/>
<path fill-rule="evenodd" clip-rule="evenodd" fill="#FFFFFF" d="M18.085,0.742c-1.884,0-3.411,1.521-3.411,3.395
	c0,1.357,1.512,3.065,2.613,5.728c0.422,1.017,0.783,2.173,0.977,3.5c0.156-1.515,0.535-2.806,0.981-3.922
	c0.968-2.423,2.253-4.022,2.253-5.306C21.498,2.263,19.97,0.742,18.085,0.742z M18.084,6.138c-1.017,0-1.843-0.821-1.843-1.834
	c0-1.014,0.826-1.833,1.843-1.833c1.019,0,1.843,0.819,1.843,1.833C19.927,5.317,19.103,6.138,18.084,6.138z"/>
</svg>
